<?xml version="1.0" standalone="no"?>
<!DOCTYPE svg PUBLIC "-//W3C//DTD SVG 20010904//EN"
 "http://www.w3.org/TR/2001/REC-SVG-20010904/DTD/svg10.dtd">
<svg version="1.0" xmlns="http://www.w3.org/2000/svg"
 width="1024.000000pt" height="1024.000000pt" viewBox="0 0 1024.000000 1024.000000"
 preserveAspectRatio="xMidYMid meet">
<metadata>
Created by potrace 1.11, written by Peter Selinger 2001-2013
</metadata>
<g transform="translate(0.000000,1024.000000) scale(0.100000,-0.100000)"
fill="#000000" stroke="none">
<path d="M4858 10236 c-1 -2 -50 -6 -108 -10 -58 -3 -116 -8 -130 -11 -14 -2
-52 -6 -85 -10 -33 -3 -76 -7 -95 -10 -58 -7 -294 -46 -300 -50 -3 -2 -26 -6
-50 -10 -25 -4 -126 -27 -225 -52 -579 -144 -1158 -407 -1645 -745 -119 -83
-361 -266 -380 -287 -3 -4 -34 -31 -70 -61 -91 -76 -183 -164 -325 -310 -520
-533 -923 -1185 -1165 -1885 -69 -202 -140 -458 -174 -635 -2 -14 -9 -47 -15
-75 -6 -27 -13 -66 -16 -85 -12 -77 -34 -238 -40 -285 -3 -27 -8 -63 -10 -80
-26 -192 -26 -858 0 -1016 2 -13 6 -51 10 -84 3 -33 8 -76 10 -95 11 -75 27
-176 31 -200 3 -14 7 -38 9 -55 6 -39 13 -73 19 -93 3 -9 8 -33 11 -52 19
-113 150 -574 186 -655 4 -11 28 -72 53 -135 335 -867 929 -1646 1698 -2228
96 -73 419 -292 430 -292 3 0 43 -23 89 -51 133 -81 489 -252 669 -322 151
-59 244 -91 420 -145 93 -29 346 -93 420 -106 14 -3 50 -10 80 -16 30 -6 66
-13 80 -15 14 -2 54 -8 90 -14 75 -12 123 -18 200 -26 30 -4 71 -8 90 -10 220
-26 874 -26 1009 0 9 2 47 6 83 9 37 4 75 8 85 10 10 2 41 7 68 10 42 6 118
19 235 40 195 36 480 112 680 181 589 205 1100 492 1595 893 171 138 450 411
611 597 163 187 347 435 477 643 42 67 77 124 77 127 0 2 20 37 44 77 83 142
208 401 291 608 124 309 251 758 290 1027 4 21 10 63 15 93 18 102 33 242 47
415 15 193 8 753 -11 865 -3 14 -7 52 -10 85 -8 77 -15 133 -21 165 -3 14 -7
43 -11 65 -16 117 -45 257 -85 418 -131 530 -338 1016 -632 1489 -85 137 -359
516 -397 548 -3 3 -46 52 -97 110 -214 247 -536 545 -794 733 -202 148 -435
295 -634 402 -49 27 -97 52 -105 56 -171 93 -603 266 -825 331 -206 59 -477
123 -610 142 -22 4 -65 11 -95 16 -30 5 -75 12 -100 15 -25 3 -56 8 -70 10
-14 2 -61 7 -105 10 -44 4 -98 9 -120 12 -47 4 -642 13 -647 9z m-883 -3250
c526 -54 870 -336 930 -766 7 -48 7 -216 0 -265 -40 -288 -229 -509 -545 -637
-93 -38 -89 -35 -45 -43 374 -64 644 -292 724 -610 19 -75 23 -110 26 -215 8
-346 -104 -596 -359 -802 -121 -97 -337 -190 -526 -227 -30 -6 -66 -14 -80
-16 -14 -3 -45 -8 -70 -11 -25 -3 -56 -8 -70 -11 -14 -4 -373 -8 -797 -10
l-773 -4 0 1813 0 1813 758 -1 c416 0 789 -4 827 -8z m4175 5 c3 0 5 -126 5
-278 l0 -278 -848 -3 -847 -2 0 -495 0 -495 28 -1 c15 0 374 0 799 -1 l771 0
1 -271 0 -272 -797 0 -797 0 -3 -762 -2 -763 -320 0 c-176 0 -321 3 -321 8 -3
18 -5 3598 -2 3607 2 7 397 10 1166 9 639 -1 1164 -2 1167 -3z"/>
<path d="M3038 6460 c0 -3 -2 -216 -2 -473 l-2 -469 381 5 c347 4 387 6 460
26 216 57 346 178 383 353 13 66 8 193 -11 259 -43 144 -170 239 -367 273 -19
3 -46 8 -60 11 -75 15 -777 28 -782 15z"/>
<path d="M3037 4962 c-2 -4 -3 -241 -3 -527 l1 -520 350 0 c432 0 531 9 685
62 197 68 317 201 345 383 13 83 3 220 -23 290 -63 177 -195 256 -507 305 -57
9 -844 16 -848 7z"/>
</g>
</svg>
